<?xml version="1.0" encoding="UTF-8" standalone="no"?>
<!DOCTYPE svg PUBLIC "-//W3C//DTD SVG 1.0//EN"
 "http://www.w3.org/TR/2001/REC-SVG-20010904/DTD/svg10.dtd" [
 <!ATTLIST svg xmlns:xlink CDATA #FIXED "http://www.w3.org/1999/xlink">
]>
<!-- Generated by Graphviz version 2.20.2 (Tue Mar &#160;2 21:46:26 UTC 2010)
     For user: (ub2) ,,, -->
<!-- Title: models_diagram Pages: 1 -->
<svg width="3040pt" height="430pt"
 viewBox="0.00 0.00 3040.00 430.00" xmlns="http://www.w3.org/2000/svg" xmlns:xlink="http://www.w3.org/1999/xlink">
<g id="graph0" class="graph" transform="scale(1 1) rotate(0) translate(4 426)">
<title>models_diagram</title>
<polygon style="fill:white;stroke:white;" points="-4,4 -4,-426 3036,-426 3036,4 -4,4"/>
<!-- _diagram_info -->
<g id="node1" class="node"><title>_diagram_info</title>
<text text-anchor="start" x="700" y="-405.8" style="font-family:Times New Roman;font-size:13.00;">Models diagram</text>
<text text-anchor="start" x="700" y="-388.8" style="font-family:Times New Roman;font-size:13.00;">Date: Mar 15 2013 &#45; 21:41</text>
<text text-anchor="start" x="700" y="-371.8" style="font-family:Times New Roman;font-size:13.00;">Migration version: 104</text>
<text text-anchor="start" x="700" y="-354.8" style="font-family:Times New Roman;font-size:13.00;">Generated by RailRoady 1.1.0</text>
<text text-anchor="start" x="700" y="-337.8" style="font-family:Times New Roman;font-size:13.00;">http://railroady.prestonlee.com</text>
</g>
<!-- Article -->
<g id="node2" class="node"><title>Article</title>
<ellipse style="fill:none;stroke:black;" cx="677" cy="-182" rx="41.1906" ry="18"/>
<text text-anchor="middle" x="677" y="-177.9" style="font-family:Times New Roman;font-size:14.00;">Article</text>
</g>
<!-- Categorization -->
<g id="node6" class="node"><title>Categorization</title>
<ellipse style="fill:none;stroke:black;" cx="166" cy="-18" rx="81.9961" ry="18"/>
<text text-anchor="middle" x="166" y="-13.9" style="font-family:Times New Roman;font-size:14.00;">Categorization</text>
</g>
<!-- Article&#45;&gt;Categorization -->
<g id="edge12" class="edge"><title>Article&#45;&gt;Categorization</title>
<path style="fill:none;stroke:#f9b91a;" d="M628,-181C538,-180 351,-172 293,-146 246,-123 205,-75 184,-44"/>
<ellipse style="fill:none;stroke:#f9b91a;" cx="632" cy="-181" rx="4" ry="4"/>
<polygon style="fill:#f9b91a;stroke:#f9b91a;" points="184,-44 181.6,-33.3 181,-40 178,-36 178,-36 178,-36 181,-40 174.4,-38.7 184,-44 184,-44"/>
</g>
<!-- Category -->
<g id="node7" class="node"><title>Category</title>
<ellipse style="fill:none;stroke:black;" cx="55" cy="-92" rx="54.8957" ry="18"/>
<text text-anchor="middle" x="55" y="-87.9" style="font-family:Times New Roman;font-size:14.00;">Category</text>
</g>
<!-- Article&#45;&gt;Category -->
<g id="edge14" class="edge"><title>Article&#45;&gt;Category</title>
<path style="fill:none;stroke:#95ab86;" d="M626,-180C520,-175 278,-163 197,-146 162,-138 124,-123 96,-111"/>
<polygon style="fill:#95ab86;stroke:#95ab86;" points="626,-180 636,-184.5 631,-180 636,-180 636,-180 636,-180 631,-180 636,-175.5 626,-180 626,-180"/>
<polygon style="fill:#95ab86;stroke:#95ab86;" points="96.1381,-111.061 88.8277,-102.888 91.5691,-109.031 87,-107 87,-107 87,-107 91.5691,-109.031 85.1723,-111.112 96.1381,-111.061 96.1381,-111.061"/>
</g>
<!-- Comment -->
<g id="node8" class="node"><title>Comment</title>
<ellipse style="fill:none;stroke:black;" cx="708" cy="-18" rx="57.1737" ry="18"/>
<text text-anchor="middle" x="708" y="-13.9" style="font-family:Times New Roman;font-size:14.00;">Comment</text>
</g>
<!-- Article&#45;&gt;Comment -->
<g id="edge16" class="edge"><title>Article&#45;&gt;Comment</title>
<path style="fill:none;stroke:#02a9e3;" d="M682,-156C688,-125 697,-77 703,-46"/>
<ellipse style="fill:none;stroke:#02a9e3;" cx="680.97" cy="-160.119" rx="4.00001" ry="4.00001"/>
<polygon style="fill:#02a9e3;stroke:#02a9e3;" points="703.039,-45.8058 709.413,-36.8826 704.019,-40.9029 705,-36 705,-36 705,-36 704.019,-40.9029 700.587,-35.1174 703.039,-45.8058 703.039,-45.8058"/>
</g>
<!-- Article&#45;&gt;Comment -->
<g id="edge18" class="edge"><title>Article&#45;&gt;Comment</title>
<path style="fill:none;stroke:#e32d2c;" d="M628,-181C529,-177 312,-163 266,-110 256,-97 256,-86 266,-74 290,-46 524,-28 642,-22"/>
<ellipse style="fill:none;stroke:#e32d2c;" cx="632" cy="-181" rx="4" ry="4"/>
<polygon style="fill:#e32d2c;stroke:#e32d2c;" points="642.05,-21.9951 652.448,-25.4777 647.025,-21.4976 652,-21 652,-21 652,-21 647.025,-21.4976 651.552,-16.5223 642.05,-21.9951 642.05,-21.9951"/>
<text text-anchor="middle" x="341" y="-87.9" style="font-family:Times New Roman;font-size:14.00;">published_comments</text>
</g>
<!-- Feedback -->
<g id="node12" class="node"><title>Feedback</title>
<ellipse style="fill:none;stroke:black;" cx="792" cy="-92" rx="55.0898" ry="18"/>
<text text-anchor="middle" x="792" y="-87.9" style="font-family:Times New Roman;font-size:14.00;">Feedback</text>
</g>
<!-- Article&#45;&gt;Feedback -->
<g id="edge22" class="edge"><title>Article&#45;&gt;Feedback</title>
<path style="fill:none;stroke:#a351c8;" d="M685,-156C690,-146 696,-136 704,-128 714,-119 726,-112 739,-107"/>
<ellipse style="fill:none;stroke:#a351c8;" cx="683.405" cy="-160.255" rx="4.00001" ry="4.00001"/>
<polygon style="fill:#a351c8;stroke:#a351c8;" points="738.862,-107.061 749.828,-107.112 743.431,-105.031 748,-103 748,-103 748,-103 743.431,-105.031 746.172,-98.8878 738.862,-107.061 738.862,-107.061"/>
<text text-anchor="middle" x="771" y="-132.9" style="font-family:Times New Roman;font-size:14.00;">published_feedback</text>
</g>
<!-- Article&#45;&gt;Feedback -->
<g id="edge8" class="edge"><title>Article&#45;&gt;Feedback</title>
<path style="fill:none;stroke:#ab41dc;" d="M723,-173C771,-164 841,-151 845,-146 855,-134 846,-122 833,-113"/>
<ellipse style="fill:none;stroke:#ab41dc;" cx="718.881" cy="-174.03" rx="4.00001" ry="4.00001"/>
<polygon style="fill:#ab41dc;stroke:#ab41dc;" points="832.321,-112.547 826.496,-103.256 828.16,-109.774 824,-107 824,-107 824,-107 828.16,-109.774 821.504,-110.744 832.321,-112.547 832.321,-112.547"/>
</g>
<!-- Ping -->
<g id="node18" class="node"><title>Ping</title>
<ellipse style="fill:none;stroke:black;" cx="450" cy="-92" rx="31.9646" ry="18"/>
<text text-anchor="middle" x="450" y="-87.9" style="font-family:Times New Roman;font-size:14.00;">Ping</text>
</g>
<!-- Article&#45;&gt;Ping -->
<g id="edge4" class="edge"><title>Article&#45;&gt;Ping</title>
<path style="fill:none;stroke:#18f220;" d="M638,-167C601,-153 541,-131 491,-110 489,-109 487,-108 485,-107"/>
<ellipse style="fill:none;stroke:#18f220;" cx="642.255" cy="-168.595" rx="4.00001" ry="4.00001"/>
<polygon style="fill:#18f220;stroke:#18f220;" points="485.138,-107.061 477.828,-98.8878 480.569,-105.031 476,-103 476,-103 476,-103 480.569,-105.031 474.172,-107.112 485.138,-107.061 485.138,-107.061"/>
</g>
<!-- Resource -->
<g id="node23" class="node"><title>Resource</title>
<ellipse style="fill:none;stroke:black;" cx="554" cy="-92" rx="54.2008" ry="18"/>
<text text-anchor="middle" x="554" y="-87.9" style="font-family:Times New Roman;font-size:14.00;">Resource</text>
</g>
<!-- Article&#45;&gt;Resource -->
<g id="edge10" class="edge"><title>Article&#45;&gt;Resource</title>
<path style="fill:none;stroke:#73be36;" d="M649,-162C631,-148 605,-130 585,-115"/>
<ellipse style="fill:none;stroke:#73be36;" cx="652.745" cy="-164.675" rx="4.00002" ry="4.00002"/>
<polygon style="fill:#73be36;stroke:#73be36;" points="585,-115 579.7,-105.4 581,-112 577,-109 577,-109 577,-109 581,-112 574.3,-112.6 585,-115 585,-115"/>
</g>
<!-- Tag -->
<g id="node26" class="node"><title>Tag</title>
<ellipse style="fill:none;stroke:black;" cx="653" cy="-92" rx="27.1004" ry="18"/>
<text text-anchor="middle" x="653" y="-87.9" style="font-family:Times New Roman;font-size:14.00;">Tag</text>
</g>
<!-- Article&#45;&gt;Tag -->
<g id="edge24" class="edge"><title>Article&#45;&gt;Tag</title>
<path style="fill:none;stroke:#099962;" d="M669,-154C668,-152 667,-149 666,-146 664,-137 662,-128 660,-120"/>
<polygon style="fill:#099962;stroke:#099962;" points="669.126,-154.422 667.69,-165.293 670.563,-159.211 672,-164 672,-164 672,-164 670.563,-159.211 676.31,-162.707 669.126,-154.422 669.126,-154.422"/>
<polygon style="fill:#099962;stroke:#099962;" points="659.874,-119.578 661.31,-108.707 658.437,-114.789 657,-110 657,-110 657,-110 658.437,-114.789 652.69,-111.293 659.874,-119.578 659.874,-119.578"/>
</g>
<!-- Trackback -->
<g id="node29" class="node"><title>Trackback</title>
<ellipse style="fill:none;stroke:black;" cx="883" cy="-18" rx="57.8712" ry="18"/>
<text text-anchor="middle" x="883" y="-13.9" style="font-family:Times New Roman;font-size:14.00;">Trackback</text>
</g>
<!-- Article&#45;&gt;Trackback -->
<g id="edge6" class="edge"><title>Article&#45;&gt;Trackback</title>
<path style="fill:none;stroke:#d1b867;" d="M723,-173C740,-170 760,-167 778,-164 832,-155 847,-162 898,-146 916,-140 918,-133 934,-128 977,-113 1005,-144 1033,-110 1065,-71 997,-45 942,-31"/>
<ellipse style="fill:none;stroke:#d1b867;" cx="718.881" cy="-174.03" rx="4.00001" ry="4.00001"/>
<polygon style="fill:#d1b867;stroke:#d1b867;" points="941.578,-30.8735 933.293,-23.6898 936.789,-29.4368 932,-28 932,-28 932,-28 936.789,-29.4368 930.707,-32.3102 941.578,-30.8735 941.578,-30.8735"/>
</g>
<!-- Article&#45;&gt;Trackback -->
<g id="edge20" class="edge"><title>Article&#45;&gt;Trackback</title>
<path style="fill:none;stroke:#1bc170;" d="M723,-173C777,-163 859,-148 861,-146 875,-132 880,-79 882,-46"/>
<ellipse style="fill:none;stroke:#1bc170;" cx="718.881" cy="-174.03" rx="4.00001" ry="4.00001"/>
<polygon style="fill:#1bc170;stroke:#1bc170;" points="882,-46 886.5,-36 882,-41 882,-36 882,-36 882,-36 882,-41 877.5,-36 882,-46 882,-46"/>
<text text-anchor="middle" x="954" y="-87.9" style="font-family:Times New Roman;font-size:14.00;">published_trackbacks</text>
</g>
<!-- Trigger -->
<g id="node30" class="node"><title>Trigger</title>
<ellipse style="fill:none;stroke:black;" cx="1189" cy="-92" rx="43.7776" ry="18"/>
<text text-anchor="middle" x="1189" y="-87.9" style="font-family:Times New Roman;font-size:14.00;">Trigger</text>
</g>
<!-- Article&#45;&gt;Trigger -->
<g id="edge2" class="edge"><title>Article&#45;&gt;Trigger</title>
<path style="fill:none;stroke:#b9d359;" d="M722,-173C740,-170 760,-167 778,-164 846,-153 864,-157 931,-146 1005,-134 1090,-115 1141,-103"/>
<ellipse style="fill:none;stroke:#b9d359;" cx="717.881" cy="-174.03" rx="4.00001" ry="4.00001"/>
<polygon style="fill:#b9d359;stroke:#b9d359;" points="1141.19,-102.961 1151.88,-105.413 1146.1,-101.981 1151,-101 1151,-101 1151,-101 1146.1,-101.981 1150.12,-96.5874 1141.19,-102.961 1141.19,-102.961"/>
</g>
<!-- Article::States -->
<g id="node3" class="node"><title>Article::States</title>
<polygon style="fill:none;stroke:black;stroke-dasharray:1,5;" points="1152,-393 1038,-393 1038,-357 1152,-357 1152,-393"/>
<text text-anchor="middle" x="1095" y="-370.9" style="font-family:Times New Roman;font-size:14.00;">Article::States</text>
</g>
<!-- Blog -->
<g id="node4" class="node"><title>Blog</title>
<ellipse style="fill:none;stroke:black;" cx="1202" cy="-375" rx="31.9646" ry="18"/>
<text text-anchor="middle" x="1202" y="-370.9" style="font-family:Times New Roman;font-size:14.00;">Blog</text>
</g>
<!-- BlogSweeper -->
<g id="node5" class="node"><title>BlogSweeper</title>
<polygon style="fill:none;stroke:black;" points="1487,-274 1381,-274 1381,-238 1487,-238 1487,-274"/>
<text text-anchor="middle" x="1434" y="-251.9" style="font-family:Times New Roman;font-size:14.00;">BlogSweeper</text>
</g>
<!-- Category&#45;&gt;Categorization -->
<g id="edge32" class="edge"><title>Category&#45;&gt;Categorization</title>
<path style="fill:none;stroke:#9b76f4;" d="M86,-71C100,-62 117,-51 131,-41"/>
<ellipse style="fill:none;stroke:#9b76f4;" cx="82.2549" cy="-73.675" rx="4.00002" ry="4.00002"/>
<polygon style="fill:#9b76f4;stroke:#9b76f4;" points="131.679,-40.547 142.496,-38.7442 135.84,-37.7735 140,-35 140,-35 140,-35 135.84,-37.7735 137.504,-31.2558 131.679,-40.547 131.679,-40.547"/>
</g>
<!-- Category&#45;&gt;Category -->
<g id="edge30" class="edge"><title>Category&#45;&gt;Category</title>
<path style="fill:none;stroke:#436a1a;" d="M114,-98C123,-97 128,-95 128,-92 128,-89 124,-87 116,-86"/>
<ellipse style="fill:none;stroke:#436a1a;" cx="109.969" cy="-98.5038" rx="4.00001" ry="4.00001"/>
<polygon style="fill:#436a1a;stroke:#436a1a;" points="115.95,-85.9951 106.448,-80.5223 110.975,-85.4976 106,-85 106,-85 106,-85 110.975,-85.4976 105.552,-89.4777 115.95,-85.9951 115.95,-85.9951"/>
<text text-anchor="middle" x="156" y="-87.9" style="font-family:Times New Roman;font-size:14.00;">children</text>
</g>
<!-- ConfigManager -->
<g id="node9" class="node"><title>ConfigManager</title>
<polygon style="fill:none;stroke:black;stroke-dasharray:1,5;" points="1754,-393 1634,-393 1634,-357 1754,-357 1754,-393"/>
<text text-anchor="middle" x="1694" y="-370.9" style="font-family:Times New Roman;font-size:14.00;">ConfigManager</text>
</g>
<!-- Content -->
<g id="node10" class="node"><title>Content</title>
<ellipse style="fill:none;stroke:black;" cx="970" cy="-375" rx="50.0315" ry="18"/>
<text text-anchor="middle" x="970" y="-370.9" style="font-family:Times New Roman;font-size:14.00;">Content</text>
</g>
<!-- Content&#45;&gt;Article -->
<g id="edge26" class="edge"><title>Content&#45;&gt;Article</title>
<path style="fill:none;stroke:black;" d="M946,-350C936,-342 924,-333 911,-328 868,-310 738,-340 703,-310 672,-282 672,-228 675,-200"/>
<polygon style="fill:none;stroke:black;" points="944.169,-353.049 954,-357 948.779,-347.781 944.169,-353.049"/>
</g>
<!-- Content&#45;&gt;Feedback -->
<g id="edge48" class="edge"><title>Content&#45;&gt;Feedback</title>
<path style="fill:none;stroke:black;" d="M971,-347C973,-303 969,-219 928,-164 905,-133 865,-114 834,-104"/>
<polygon style="fill:none;stroke:black;" points="967.5,-347 971,-357 974.5,-347 967.5,-347"/>
</g>
<!-- Notification -->
<g id="node14" class="node"><title>Notification</title>
<ellipse style="fill:none;stroke:black;" cx="853" cy="-182" rx="66.0138" ry="18"/>
<text text-anchor="middle" x="853" y="-177.9" style="font-family:Times New Roman;font-size:14.00;">Notification</text>
</g>
<!-- Content&#45;&gt;Notification -->
<g id="edge36" class="edge"><title>Content&#45;&gt;Notification</title>
<path style="fill:none;stroke:#e71b2a;" d="M957,-350C948,-333 936,-311 925,-292 908,-262 887,-230 872,-208"/>
<ellipse style="fill:none;stroke:#e71b2a;" cx="959.015" cy="-353.527" rx="4.00002" ry="4.00002"/>
<polygon style="fill:#e71b2a;stroke:#e71b2a;" points="872,-208 869.6,-197.3 869,-204 866,-200 866,-200 866,-200 869,-204 862.4,-202.7 872,-208 872,-208"/>
</g>
<!-- Page -->
<g id="node16" class="node"><title>Page</title>
<ellipse style="fill:none;stroke:black;" cx="1032" cy="-256" rx="34.0492" ry="18"/>
<text text-anchor="middle" x="1032" y="-251.9" style="font-family:Times New Roman;font-size:14.00;">Page</text>
</g>
<!-- Content&#45;&gt;Page -->
<g id="edge52" class="edge"><title>Content&#45;&gt;Page</title>
<path style="fill:none;stroke:black;" d="M984,-348C996,-326 1012,-293 1023,-274"/>
<polygon style="fill:none;stroke:black;" points="980.797,-346.559 979,-357 986.916,-349.958 980.797,-346.559"/>
</g>
<!-- Redirect -->
<g id="node21" class="node"><title>Redirect</title>
<ellipse style="fill:none;stroke:black;" cx="1172" cy="-256" rx="50.0315" ry="18"/>
<text text-anchor="middle" x="1172" y="-251.9" style="font-family:Times New Roman;font-size:14.00;">Redirect</text>
</g>
<!-- Content&#45;&gt;Redirect -->
<g id="edge42" class="edge"><title>Content&#45;&gt;Redirect</title>
<path style="fill:none;stroke:#c1b50a;" d="M995,-351C1005,-343 1016,-333 1029,-328 1062,-312 1076,-326 1108,-310 1123,-303 1138,-291 1149,-280"/>
<polygon style="fill:#c1b50a;stroke:#c1b50a;" points="994.526,-351.415 984.037,-354.613 990.763,-354.707 987,-358 987,-358 987,-358 990.763,-354.707 989.963,-361.387 994.526,-351.415 994.526,-351.415"/>
<polygon style="fill:#c1b50a;stroke:#c1b50a;" points="1148.93,-280.071 1159.18,-276.182 1152.46,-276.536 1156,-273 1156,-273 1156,-273 1152.46,-276.536 1152.82,-269.818 1148.93,-280.071 1148.93,-280.071"/>
</g>
<!-- Redirection -->
<g id="node22" class="node"><title>Redirection</title>
<ellipse style="fill:none;stroke:black;" cx="1126" cy="-182" rx="64.1231" ry="18"/>
<text text-anchor="middle" x="1126" y="-177.9" style="font-family:Times New Roman;font-size:14.00;">Redirection</text>
</g>
<!-- Content&#45;&gt;Redirection -->
<g id="edge40" class="edge"><title>Content&#45;&gt;Redirection</title>
<path style="fill:none;stroke:#694082;" d="M997,-353C1020,-333 1052,-304 1075,-274 1090,-254 1104,-228 1114,-209"/>
<ellipse style="fill:none;stroke:#694082;" cx="994.073" cy="-355.439" rx="4.00002" ry="4.00002"/>
<polygon style="fill:#694082;stroke:#694082;" points="1113.94,-209.138 1122.11,-201.828 1115.97,-204.569 1118,-200 1118,-200 1118,-200 1115.97,-204.569 1113.89,-198.172 1113.94,-209.138 1113.94,-209.138"/>
</g>
<!-- Content&#45;&gt;Trigger -->
<g id="edge44" class="edge"><title>Content&#45;&gt;Trigger</title>
<path style="fill:none;stroke:#307d8f;" d="M993,-352C1003,-343 1016,-334 1029,-328 1114,-290 1178,-350 1231,-274 1264,-226 1230,-155 1206,-117"/>
<ellipse style="fill:none;stroke:#307d8f;" cx="989.828" cy="-355.172" rx="4.00002" ry="4.00002"/>
<polygon style="fill:#307d8f;stroke:#307d8f;" points="1206.3,-117.48 1204.82,-106.615 1203.65,-113.24 1201,-109 1201,-109 1201,-109 1203.65,-113.24 1197.18,-111.385 1206.3,-117.48 1206.3,-117.48"/>
</g>
<!-- User -->
<g id="node31" class="node"><title>User</title>
<ellipse style="fill:none;stroke:black;" cx="795" cy="-256" rx="32.8565" ry="18"/>
<text text-anchor="middle" x="795" y="-251.9" style="font-family:Times New Roman;font-size:14.00;">User</text>
</g>
<!-- Content&#45;&gt;User -->
<g id="edge38" class="edge"><title>Content&#45;&gt;User</title>
<path style="fill:none;stroke:#7be720;" d="M946,-350C936,-342 924,-333 911,-328 870,-311 742,-342 711,-310 694,-290 726,-275 755,-266"/>
<polygon style="fill:#7be720;stroke:#7be720;" points="946.474,-350.415 951.037,-360.387 950.237,-353.707 954,-357 954,-357 954,-357 950.237,-353.707 956.963,-353.613 946.474,-350.415 946.474,-350.415"/>
<polygon style="fill:#7be720;stroke:#7be720;" points="755.422,-265.874 766.293,-267.31 760.211,-264.437 765,-263 765,-263 765,-263 760.211,-264.437 763.707,-258.69 755.422,-265.874 755.422,-265.874"/>
<text text-anchor="middle" x="756" y="-296.9" style="font-family:Times New Roman;font-size:14.00;">notify_users</text>
</g>
<!-- EmailNotifier -->
<g id="node11" class="node"><title>EmailNotifier</title>
<polygon style="fill:none;stroke:black;" points="1888,-274 1784,-274 1784,-238 1888,-238 1888,-274"/>
<text text-anchor="middle" x="1836" y="-251.9" style="font-family:Times New Roman;font-size:14.00;">EmailNotifier</text>
</g>
<!-- Feedback&#45;&gt;Comment -->
<g id="edge34" class="edge"><title>Feedback&#45;&gt;Comment</title>
<path style="fill:none;stroke:black;" d="M765,-68C753,-57 739,-45 728,-35"/>
<polygon style="fill:none;stroke:black;" points="763.169,-71.0489 773,-75 767.779,-65.7809 763.169,-71.0489"/>
</g>
<!-- Feedback&#45;&gt;Trackback -->
<g id="edge58" class="edge"><title>Feedback&#45;&gt;Trackback</title>
<path style="fill:none;stroke:black;" d="M821,-68C834,-58 850,-45 862,-35"/>
<polygon style="fill:none;stroke:black;" points="818.221,-65.7809 813,-75 822.831,-71.0489 818.221,-65.7809"/>
</g>
<!-- Feedback::States -->
<g id="node13" class="node"><title>Feedback::States</title>
<polygon style="fill:none;stroke:black;stroke-dasharray:1,5;" points="2168,-393 2036,-393 2036,-357 2168,-357 2168,-393"/>
<text text-anchor="middle" x="2102" y="-370.9" style="font-family:Times New Roman;font-size:14.00;">Feedback::States</text>
</g>
<!-- NotificationMailer -->
<g id="node15" class="node"><title>NotificationMailer</title>
<polygon style="fill:none;stroke:black;" points="2354,-274 2218,-274 2218,-238 2354,-238 2354,-274"/>
<text text-anchor="middle" x="2286" y="-251.9" style="font-family:Times New Roman;font-size:14.00;">NotificationMailer</text>
</g>
<!-- PageCache -->
<g id="node17" class="node"><title>PageCache</title>
<polygon style="fill:none;stroke:black;" points="2494,-393 2404,-393 2404,-357 2494,-357 2494,-393"/>
<text text-anchor="middle" x="2449" y="-370.9" style="font-family:Times New Roman;font-size:14.00;">PageCache</text>
</g>
<!-- PostType -->
<g id="node19" class="node"><title>PostType</title>
<ellipse style="fill:none;stroke:black;" cx="2565" cy="-375" rx="53.0059" ry="18"/>
<text text-anchor="middle" x="2565" y="-370.9" style="font-family:Times New Roman;font-size:14.00;">PostType</text>
</g>
<!-- Profile -->
<g id="node20" class="node"><title>Profile</title>
<ellipse style="fill:none;stroke:black;" cx="2673" cy="-256" rx="41.1906" ry="18"/>
<text text-anchor="middle" x="2673" y="-251.9" style="font-family:Times New Roman;font-size:14.00;">Profile</text>
</g>
<!-- Redirect&#45;&gt;Redirection -->
<g id="edge54" class="edge"><title>Redirect&#45;&gt;Redirection</title>
<path style="fill:none;stroke:#0e96a9;" d="M1157,-231C1152,-224 1147,-216 1143,-209"/>
<ellipse style="fill:none;stroke:#0e96a9;" cx="1159.02" cy="-234.527" rx="4.00002" ry="4.00002"/>
<polygon style="fill:#0e96a9;stroke:#0e96a9;" points="1142.55,-208.321 1140.74,-197.504 1139.77,-204.16 1137,-200 1137,-200 1137,-200 1139.77,-204.16 1133.26,-202.496 1142.55,-208.321 1142.55,-208.321"/>
</g>
<!-- Right -->
<g id="node24" class="node"><title>Right</title>
<ellipse style="fill:none;stroke:black;" cx="2673" cy="-375" rx="36.8288" ry="18"/>
<text text-anchor="middle" x="2673" y="-370.9" style="font-family:Times New Roman;font-size:14.00;">Right</text>
</g>
<!-- Right&#45;&gt;Profile -->
<g id="edge56" class="edge"><title>Right&#45;&gt;Profile</title>
<path style="fill:none;stroke:#2922fe;" d="M2673,-347C2673,-328 2673,-303 2673,-284"/>
<polygon style="fill:#2922fe;stroke:#2922fe;" points="2673,-347 2668.5,-357 2673,-352 2673,-357 2673,-357 2673,-357 2673,-352 2677.5,-357 2673,-347 2673,-347"/>
<polygon style="fill:#2922fe;stroke:#2922fe;" points="2673,-284 2677.5,-274 2673,-279 2673,-274 2673,-274 2673,-274 2673,-279 2668.5,-274 2673,-284 2673,-284"/>
</g>
<!-- Sidebar -->
<g id="node25" class="node"><title>Sidebar</title>
<ellipse style="fill:none;stroke:black;" cx="2775" cy="-375" rx="46.7546" ry="18"/>
<text text-anchor="middle" x="2775" y="-370.9" style="font-family:Times New Roman;font-size:14.00;">Sidebar</text>
</g>
<!-- TextFilter -->
<g id="node27" class="node"><title>TextFilter</title>
<ellipse style="fill:none;stroke:black;" cx="2896" cy="-375" rx="55.7874" ry="18"/>
<text text-anchor="middle" x="2896" y="-370.9" style="font-family:Times New Roman;font-size:14.00;">TextFilter</text>
</g>
<!-- Theme -->
<g id="node28" class="node"><title>Theme</title>
<polygon style="fill:none;stroke:black;" points="3032,-393 2970,-393 2970,-357 3032,-357 3032,-393"/>
<text text-anchor="middle" x="3001" y="-370.9" style="font-family:Times New Roman;font-size:14.00;">Theme</text>
</g>
<!-- User&#45;&gt;Article -->
<g id="edge64" class="edge"><title>User&#45;&gt;Article</title>
<path style="fill:none;stroke:#cbfae8;" d="M766,-238C749,-227 728,-214 710,-203"/>
<ellipse style="fill:none;stroke:#cbfae8;" cx="769.527" cy="-240.015" rx="4.00002" ry="4.00002"/>
<polygon style="fill:#cbfae8;stroke:#cbfae8;" points="709.321,-202.547 703.496,-193.256 705.16,-199.774 701,-197 701,-197 701,-197 705.16,-199.774 698.504,-200.744 709.321,-202.547 709.321,-202.547"/>
</g>
<!-- User&#45;&gt;Content -->
<g id="edge62" class="edge"><title>User&#45;&gt;Content</title>
<path style="fill:none;stroke:#67797c;" d="M801,-284C804,-293 810,-303 818,-310 851,-336 873,-310 911,-328 924,-334 936,-342 946,-351"/>
<polygon style="fill:#67797c;stroke:#67797c;" points="800.874,-283.578 802.31,-272.707 799.437,-278.789 798,-274 798,-274 798,-274 799.437,-278.789 793.69,-275.293 800.874,-283.578 800.874,-283.578"/>
<polygon style="fill:#67797c;stroke:#67797c;" points="945.929,-350.929 949.818,-361.182 949.464,-354.464 953,-358 953,-358 953,-358 949.464,-354.464 956.182,-354.818 945.929,-350.929 945.929,-350.929"/>
<text text-anchor="middle" x="875" y="-296.9" style="font-family:Times New Roman;font-size:14.00;">notify_contents</text>
</g>
<!-- User&#45;&gt;Notification -->
<g id="edge60" class="edge"><title>User&#45;&gt;Notification</title>
<path style="fill:none;stroke:#8c831f;" d="M813,-233C819,-225 827,-216 833,-208"/>
<ellipse style="fill:none;stroke:#8c831f;" cx="810.561" cy="-235.927" rx="4.00002" ry="4.00002"/>
<polygon style="fill:#8c831f;stroke:#8c831f;" points="833,-208 842.6,-202.7 836,-204 839,-200 839,-200 839,-200 836,-204 835.4,-197.3 833,-208 833,-208"/>
</g>
<!-- WebNotifier -->
<g id="node32" class="node"><title>WebNotifier</title>
<polygon style="fill:none;stroke:black;" points="2004,-274 1906,-274 1906,-238 2004,-238 2004,-274"/>
<text text-anchor="middle" x="1955" y="-251.9" style="font-family:Times New Roman;font-size:14.00;">WebNotifier</text>
</g>
<!-- ActionController::Caching::Sweeper -->
<g id="node46" class="node"><title>ActionController::Caching::Sweeper</title>
<ellipse style="fill:none;stroke:black;" cx="1434" cy="-375" rx="182.059" ry="18"/>
<text text-anchor="middle" x="1434" y="-370.9" style="font-family:Times New Roman;font-size:14.00;">ActionController::Caching::Sweeper</text>
</g>
<!-- ActionController::Caching::Sweeper&#45;&gt;BlogSweeper -->
<g id="edge28" class="edge"><title>ActionController::Caching::Sweeper&#45;&gt;BlogSweeper</title>
<path style="fill:none;stroke:black;" d="M1434,-347C1434,-325 1434,-294 1434,-274"/>
<polygon style="fill:none;stroke:black;" points="1430.5,-347 1434,-357 1437.5,-347 1430.5,-347"/>
</g>
<!-- ActiveRecord::Observer -->
<g id="node56" class="node"><title>ActiveRecord::Observer</title>
<ellipse style="fill:none;stroke:black;" cx="1895" cy="-375" rx="122.994" ry="18"/>
<text text-anchor="middle" x="1895" y="-370.9" style="font-family:Times New Roman;font-size:14.00;">ActiveRecord::Observer</text>
</g>
<!-- ActiveRecord::Observer&#45;&gt;EmailNotifier -->
<g id="edge46" class="edge"><title>ActiveRecord::Observer&#45;&gt;EmailNotifier</title>
<path style="fill:none;stroke:black;" d="M1881,-348C1870,-325 1855,-294 1845,-274"/>
<polygon style="fill:none;stroke:black;" points="1878.08,-349.958 1886,-357 1884.2,-346.559 1878.08,-349.958"/>
</g>
<!-- ActiveRecord::Observer&#45;&gt;WebNotifier -->
<g id="edge66" class="edge"><title>ActiveRecord::Observer&#45;&gt;WebNotifier</title>
<path style="fill:none;stroke:black;" d="M1909,-348C1920,-326 1936,-294 1946,-274"/>
<polygon style="fill:none;stroke:black;" points="1905.8,-346.559 1904,-357 1911.92,-349.958 1905.8,-346.559"/>
</g>
<!-- ActionMailer::Base -->
<g id="node59" class="node"><title>ActionMailer::Base</title>
<ellipse style="fill:none;stroke:black;" cx="2286" cy="-375" rx="100.063" ry="18"/>
<text text-anchor="middle" x="2286" y="-370.9" style="font-family:Times New Roman;font-size:14.00;">ActionMailer::Base</text>
</g>
<!-- ActionMailer::Base&#45;&gt;NotificationMailer -->
<g id="edge50" class="edge"><title>ActionMailer::Base&#45;&gt;NotificationMailer</title>
<path style="fill:none;stroke:black;" d="M2286,-347C2286,-325 2286,-294 2286,-274"/>
<polygon style="fill:none;stroke:black;" points="2282.5,-347 2286,-357 2289.5,-347 2282.5,-347"/>
</g>
</g>
</svg>
